<svg width="20" height="20" viewBox="0 0 24 24" fill="none" xmlns="http://www.w3.org/2000/svg">
  <rect x="2" y="2" width="4" height="4" rx="1" fill="#22c55e" opacity="0.8"/>
  <rect x="6" y="2" width="4" height="4" rx="1" fill="#ef4444" opacity="0.9"/>
  <rect x="10" y="2" width="4" height="4" rx="1" fill="#3b82f6" opacity="0.7"/>
  <rect x="14" y="2" width="4" height="4" rx="1" fill="#f59e0b" opacity="0.8"/>
  <rect x="18" y="2" width="4" height="4" rx="1" fill="#8b5cf6" opacity="0.6"/>
  
  <rect x="2" y="6" width="4" height="4" rx="1" fill="#ef4444" opacity="0.9"/>
  <rect x="6" y="6" width="4" height="4" rx="1" fill="#dc2626" opacity="1"/>
  <rect x="10" y="6" width="4" height="4" rx="1" fill="#f59e0b" opacity="0.8"/>
  <rect x="14" y="6" width="4" height="4" rx="1" fill="#22c55e" opacity="0.8"/>
  <rect x="18" y="6" width="4" height="4" rx="1" fill="#3b82f6" opacity="0.7"/>
  
  <rect x="2" y="10" width="4" height="4" rx="1" fill="#3b82f6" opacity="0.7"/>
  <rect x="6" y="10" width="4" height="4" rx="1" fill="#f59e0b" opacity="0.8"/>
  <rect x="10" y="10" width="4" height="4" rx="1" fill="#dc2626" opacity="1"/>
  <rect x="14" y="10" width="4" height="4" rx="1" fill="#ef4444" opacity="0.9"/>
  <rect x="18" y="10" width="4" height="4" rx="1" fill="#22c55e" opacity="0.8"/>
  
  <rect x="2" y="14" width="4" height="4" rx="1" fill="#f59e0b" opacity="0.8"/>
  <rect x="6" y="14" width="4" height="4" rx="1" fill="#22c55e" opacity="0.8"/>
  <rect x="10" y="14" width="4" height="4" rx="1" fill="#8b5cf6" opacity="0.6"/>
  <rect x="14" y="14" width="4" height="4" rx="1" fill="#3b82f6" opacity="0.7"/>
  <rect x="18" y="14" width="4" height="4" rx="1" fill="#ef4444" opacity="0.9"/>
  
  <rect x="2" y="18" width="4" height="4" rx="1" fill="#8b5cf6" opacity="0.6"/>
  <rect x="6" y="18" width="4" height="4" rx="1" fill="#3b82f6" opacity="0.7"/>
  <rect x="10" y="18" width="4" height="4" rx="1" fill="#22c55e" opacity="0.8"/>
  <rect x="14" y="18" width="4" height="4" rx="1" fill="#f59e0b" opacity="0.8"/>
  <rect x="18" y="18" width="4" height="4" rx="1" fill="#dc2626" opacity="1"/>
</svg>